<svg width="1056" height="136" viewBox="0 0 1056 136" fill="none" xmlns="http://www.w3.org/2000/svg">
<path d="M58.436 135.172C46.9727 135.172 36.8367 132.578 28.028 127.389C19.2193 122.2 12.4017 115.202 7.575 106.393C2.869 97.4637 0.516 87.569 0.516 76.709C0.516 65.6077 3.11033 55.5923 8.299 46.663C13.6083 37.7337 20.8483 30.735 30.019 25.667C39.3103 20.4783 49.748 17.884 61.332 17.884C73.0367 17.884 83.3537 20.418 92.283 25.486C101.212 30.4333 108.09 37.3113 112.917 46.12C117.864 54.808 120.338 64.5217 120.338 75.261C120.338 87.207 117.502 97.7653 111.831 106.936C106.28 115.986 98.7387 122.985 89.206 127.932C79.794 132.759 69.5373 135.172 58.436 135.172ZM66.038 130.466C72.6747 130.466 78.4667 128.656 83.414 125.036C88.482 121.416 92.4037 116.288 95.179 109.651C97.9543 102.894 99.342 94.99 99.342 85.94C99.342 74.8387 97.4717 64.401 93.731 54.627C89.9903 44.853 84.7413 37.0097 77.984 31.097C71.2267 25.1843 63.504 22.228 54.816 22.228C48.1793 22.228 42.327 24.038 37.259 27.658C32.191 31.278 28.2693 36.4667 25.494 43.224C22.7187 49.8607 21.331 57.704 21.331 66.754C21.331 77.614 23.2013 87.9913 26.942 97.886C30.6827 107.66 35.9317 115.564 42.689 121.597C49.567 127.51 57.35 130.466 66.038 130.466ZM228.459 118.701C228.941 118.701 229.364 118.942 229.726 119.425C230.088 119.787 230.148 120.149 229.907 120.511C226.287 125.458 222.968 129.078 219.952 131.371C216.935 133.543 213.556 134.629 209.816 134.629C205.472 134.629 202.334 133.181 200.404 130.285C198.473 127.268 197.568 122.804 197.689 116.891L198.051 88.112C198.051 76.7693 195.155 71.098 189.363 71.098C185.501 71.098 182.002 73.27 178.865 77.614C175.727 81.958 173.193 88.4137 171.263 96.981C169.453 105.428 168.487 115.503 168.367 127.208V130.828C168.367 131.914 167.462 132.759 165.652 133.362C163.962 134.086 161.368 134.448 157.869 134.448C153.645 134.448 151.413 133.965 151.172 133V128.837C151.413 125.458 151.534 122.381 151.534 119.606L151.896 79.243C151.896 73.3303 150.327 70.374 147.19 70.374C144.535 70.374 141.217 72.7873 137.235 77.614C137.114 77.7347 136.933 77.795 136.692 77.795C136.209 77.795 135.787 77.614 135.425 77.252C135.063 76.7693 135.002 76.347 135.244 75.985C138.864 70.917 142.363 67.2367 145.742 64.944C149.12 62.6513 152.68 61.505 156.421 61.505C160.644 61.505 163.661 62.8323 165.471 65.487C167.401 68.021 168.427 71.8823 168.548 77.071V93.723C171.082 83.225 174.822 75.1403 179.77 69.469C184.717 63.677 190.569 60.781 197.327 60.781C208.911 60.781 214.703 68.745 214.703 84.673L214.522 116.891C214.401 122.562 215.789 125.398 218.685 125.398C220.012 125.398 221.339 124.855 222.667 123.769C224.115 122.683 225.804 121.114 227.735 119.063L228.459 118.701ZM474.097 119.063C474.338 118.822 474.58 118.701 474.821 118.701C475.304 118.701 475.666 118.942 475.907 119.425C476.269 119.787 476.39 120.149 476.269 120.511C472.528 125.458 469.15 129.078 466.133 131.371C463.237 133.543 459.919 134.629 456.178 134.629C451.834 134.629 448.697 133.181 446.766 130.285C444.835 127.268 443.93 122.804 444.051 116.891L444.232 88.112C444.232 76.7693 441.336 71.098 435.544 71.098C431.924 71.098 428.545 73.27 425.408 77.614C422.271 81.8373 419.737 88.0517 417.806 96.257C415.875 104.462 414.85 114.236 414.729 125.579V130.828C414.729 131.914 413.824 132.759 412.014 133.362C410.325 134.086 407.73 134.448 404.231 134.448C400.008 134.448 397.775 133.965 397.534 133V128.837C397.775 125.458 397.896 122.381 397.896 119.606L398.439 26.391V25.667C398.439 24.581 397.775 24.038 396.448 24.038H361.153C358.74 24.038 356.99 24.3397 355.904 24.943C354.939 25.5463 354.335 26.572 354.094 28.02C353.853 29.3473 353.672 31.64 353.551 34.898L353.732 118.339C353.732 122.08 354.094 124.795 354.818 126.484C355.663 128.173 357.231 129.32 359.524 129.923C361.817 130.526 365.557 130.828 370.746 130.828C371.229 130.828 371.47 131.19 371.47 131.914C371.47 132.638 371.229 133 370.746 133C366.281 133 362.782 132.94 360.248 132.819L343.777 132.638L328.211 132.819C325.556 132.94 321.816 133 316.989 133C316.506 133 316.265 132.638 316.265 131.914C316.265 131.19 316.446 130.828 316.808 130.828C321.876 130.828 325.556 130.526 327.849 129.923C330.262 129.32 331.891 128.173 332.736 126.484C333.581 124.674 334.003 121.959 334.003 118.339V34.536C334.124 30.3127 333.581 27.5373 332.374 26.21C331.167 24.762 328.875 24.038 325.496 24.038H323.143C319.04 24.038 314.998 25.3653 311.016 28.02C307.034 30.554 303.655 33.993 300.88 38.337C298.105 42.5603 296.415 47.206 295.812 52.274C295.812 52.636 295.51 52.817 294.907 52.817C294.545 52.817 294.183 52.7567 293.821 52.636C293.58 52.3947 293.519 52.1533 293.64 51.912C294.364 46.7233 295.269 34.717 296.355 15.893C296.355 15.531 296.717 15.35 297.441 15.35C298.286 15.35 298.708 15.531 298.708 15.893C298.708 18.5477 301.423 19.875 306.853 19.875C316.627 20.237 328.875 20.418 343.596 20.418C358.679 20.418 369.539 20.237 376.176 19.875C384.864 19.7543 392.164 18.3667 398.077 15.712C403.99 13.0573 408.575 8.29099 411.833 1.41299C412.074 1.05099 412.557 0.869997 413.281 0.869997C413.764 0.869997 414.186 0.990662 414.548 1.23199C414.91 1.35266 415.091 1.53366 415.091 1.775L414.91 93.18C417.323 82.8027 421.004 74.8387 425.951 69.288C430.898 63.6167 436.811 60.781 443.689 60.781C455.273 60.781 461.065 68.745 461.065 84.673L460.884 116.891C460.643 122.562 462.03 125.398 465.047 125.398C466.254 125.398 467.46 124.915 468.667 123.95C469.994 122.985 471.804 121.356 474.097 119.063ZM550.516 121.597C550.878 121.597 551.24 121.778 551.602 122.14C551.964 122.502 552.024 122.804 551.783 123.045C547.921 127.268 543.517 130.345 538.57 132.276C533.622 134.207 528.554 135.172 523.366 135.172C516.126 135.172 509.972 133.543 504.904 130.285C499.836 127.027 496.035 122.743 493.501 117.434C490.967 112.125 489.7 106.453 489.7 100.42C489.7 93.904 491.389 87.6293 494.768 81.596C498.146 75.442 502.913 70.4343 509.067 66.573C515.341 62.7117 522.521 60.781 530.606 60.781C536.036 60.781 540.259 61.6257 543.276 63.315C546.413 65.0043 548.163 67.4177 548.525 70.555C549.007 75.8643 545.267 80.8117 537.303 85.397C529.339 89.9823 519.504 93.3007 507.8 95.352C508.282 104.643 510.696 112.306 515.04 118.339C519.504 124.252 525.538 127.208 533.14 127.208C536.036 127.208 538.992 126.786 542.009 125.941C545.025 124.976 547.74 123.528 550.154 121.597H550.516ZM521.194 65.668C516.97 65.668 513.652 68.202 511.239 73.27C508.946 78.2173 507.8 84.6127 507.8 92.456C522.4 89.0773 529.459 83.044 528.977 74.356C528.977 71.7013 528.253 69.5897 526.805 68.021C525.477 66.4523 523.607 65.668 521.194 65.668ZM741.513 130.828C741.875 130.828 742.056 131.19 742.056 131.914C742.177 132.638 741.996 133 741.513 133H711.829C708.933 133 703.865 128.173 696.625 118.52C689.506 108.746 680.878 94.085 670.742 74.537C667.363 75.3817 663.623 75.804 659.52 75.804C658.917 75.804 658.132 75.6833 657.167 75.442V118.339C657.046 121.838 657.288 124.493 657.891 126.303C658.615 127.992 659.822 129.199 661.511 129.923C663.321 130.526 666.036 130.828 669.656 130.828C670.139 130.828 670.38 131.19 670.38 131.914C670.501 132.638 670.32 133 669.837 133C665.734 133 662.597 132.94 660.425 132.819L647.031 132.638L633.456 132.819C631.043 132.94 627.785 133 623.682 133C623.199 133 622.898 132.638 622.777 131.914C622.777 131.19 623.018 130.828 623.501 130.828C627.483 130.828 630.439 130.526 632.37 129.923C634.301 129.199 635.568 127.992 636.171 126.303C636.895 124.493 637.317 121.838 637.438 118.339V34.536C637.438 30.916 637.076 28.2613 636.352 26.572C635.749 24.8827 634.542 23.7363 632.732 23.133C630.922 22.409 628.147 22.047 624.406 22.047C623.923 22.047 623.682 21.685 623.682 20.961C623.682 20.237 623.923 19.875 624.406 19.875L633.999 20.056C639.308 20.2973 643.652 20.418 647.031 20.418C651.134 20.418 655.598 20.1767 660.425 19.694C664.286 19.4527 666.82 19.332 668.027 19.332C680.214 19.332 689.325 21.323 695.358 25.305C701.512 29.287 704.589 34.8377 704.589 41.957C704.589 47.1457 702.839 52.1533 699.34 56.98C695.961 61.8067 691.436 65.849 685.765 69.107C695.177 84.673 703.141 96.9207 709.657 105.85C716.294 114.659 722.086 121.054 727.033 125.036C732.101 128.897 736.928 130.828 741.513 130.828ZM657.167 70.374C658.615 70.736 660.365 70.917 662.416 70.917C670.38 70.917 675.991 69.1673 679.249 65.668C682.628 62.1687 684.317 56.3163 684.317 48.111C684.317 39.5437 682.628 33.269 679.249 29.287C675.991 25.1843 671.949 23.133 667.122 23.133C663.864 23.133 661.632 23.3743 660.425 23.857C659.218 24.219 658.374 25.1843 657.891 26.753C657.529 28.201 657.288 30.916 657.167 34.898V70.374ZM782.409 135.534C775.41 135.534 769.377 133.905 764.309 130.647C759.362 127.268 755.621 122.804 753.087 117.253C750.553 111.702 749.286 105.609 749.286 98.972C749.286 91.4907 750.855 84.854 753.992 79.062C757.129 73.27 761.473 68.8053 767.024 65.668C772.695 62.41 779.03 60.781 786.029 60.781C796.648 60.781 804.913 64.1597 810.826 70.917C816.739 77.6743 819.695 86.4227 819.695 97.162C819.695 105.247 817.945 112.185 814.446 117.977C810.947 123.769 806.361 128.173 800.69 131.19C795.019 134.086 788.925 135.534 782.409 135.534ZM788.382 131.009C792.726 131.009 795.984 128.716 798.156 124.131C800.328 119.425 801.414 112.969 801.414 104.764C801.414 97.7653 800.449 91.2493 798.518 85.216C796.708 79.062 794.174 74.175 790.916 70.555C787.658 66.935 784.098 65.125 780.237 65.125C776.255 65.125 773.118 67.2367 770.825 71.46C768.532 75.6833 767.386 81.958 767.386 90.284C767.386 97.524 768.351 104.281 770.282 110.556C772.213 116.71 774.747 121.657 777.884 125.398C781.142 129.139 784.641 131.009 788.382 131.009ZM871.194 135.353C863.592 135.353 857.197 133.483 852.008 129.742C846.94 126.001 843.199 121.175 840.786 115.262C838.373 109.229 837.347 102.954 837.709 96.438C837.83 90.0427 839.7 84.13 843.32 78.7C846.94 73.1493 851.646 68.8053 857.438 65.668C863.23 62.41 869.143 60.781 875.176 60.781C880.365 60.781 885.071 61.8067 889.294 63.858C893.517 65.9093 895.87 68.926 896.353 72.908C896.594 75.442 895.931 77.433 894.362 78.881C892.914 80.329 890.621 81.053 887.484 81.053C884.226 81.053 881.813 80.329 880.244 78.881C878.675 77.433 877.288 75.442 876.081 72.908C874.874 70.6153 873.668 68.8657 872.461 67.659C871.254 66.4523 869.565 65.849 867.393 65.849C863.532 65.849 860.455 67.9003 858.162 72.003C855.99 76.1057 854.904 81.596 854.904 88.474C854.904 99.5753 857.136 108.686 861.601 115.805C866.186 122.924 872.823 126.484 881.511 126.484C887.786 126.484 892.733 125.036 896.353 122.14H896.534C896.896 122.14 897.258 122.381 897.62 122.864C898.103 123.226 898.223 123.588 897.982 123.95C894.241 128.173 890.139 131.13 885.674 132.819C881.209 134.508 876.383 135.353 871.194 135.353ZM995.373 119.063C995.855 119.063 996.217 119.304 996.459 119.787C996.821 120.27 996.881 120.632 996.64 120.873C993.02 125.579 989.762 129.078 986.866 131.371C983.97 133.543 981.134 134.629 978.359 134.629C974.859 134.629 971.601 133.784 968.585 132.095C965.689 130.285 962.25 127.087 958.268 122.502L943.245 105.126C941.917 103.678 940.892 102.652 940.168 102.049C939.444 101.446 938.599 101.084 937.634 100.963V130.828C937.634 131.914 936.729 132.759 934.919 133.362C933.109 134.086 930.454 134.448 926.955 134.448C922.731 134.448 920.499 133.965 920.258 133V128.837C920.499 125.458 920.62 122.381 920.62 119.606L921.344 26.391C921.464 22.5297 921.102 19.7543 920.258 18.065C919.413 16.255 917.965 15.35 915.914 15.35C913.742 15.35 911.087 16.1343 907.95 17.703H907.588C907.105 17.703 906.743 17.4013 906.502 16.798C906.14 16.1947 906.2 15.7723 906.683 15.531L935.281 1.775H935.643C936.005 1.775 936.427 1.95599 936.91 2.31799C937.513 2.55933 937.815 2.861 937.815 3.223L937.634 73.451C941.736 69.469 946.261 66.392 951.209 64.22C956.277 61.9273 961.465 60.781 966.775 60.781C972.446 60.781 976.368 61.867 978.54 64.039C980.832 66.211 982.099 68.745 982.341 71.641C982.461 76.1057 980.108 80.51 975.282 84.854C970.455 89.0773 963.517 92.818 954.467 96.076L970.757 114.538C974.015 118.399 976.669 120.994 978.721 122.321C980.893 123.528 983.004 124.131 985.056 124.131C987.952 124.131 991.27 122.502 995.011 119.244L995.373 119.063ZM955.372 68.564C950.062 68.564 945.839 71.098 942.702 76.166C939.564 81.1133 937.875 87.6897 937.634 95.895V97.343C946.322 95.4123 952.657 92.9387 956.639 89.922C960.741 86.9053 962.793 83.1647 962.793 78.7C962.793 75.5627 962.129 73.089 960.802 71.279C959.595 69.469 957.785 68.564 955.372 68.564ZM1027.79 134.991C1021.88 134.991 1016.57 133.724 1011.87 131.19C1007.28 128.656 1004.93 125.579 1004.81 121.959C1004.81 119.546 1005.53 117.736 1006.98 116.529C1008.43 115.202 1010.3 114.538 1012.59 114.538C1014.76 114.538 1016.63 115.141 1018.2 116.348C1019.77 117.434 1021.58 119.123 1023.63 121.416C1026.04 123.95 1028.1 125.82 1029.79 127.027C1031.6 128.234 1033.77 128.837 1036.3 128.837C1038.59 128.837 1040.16 128.354 1041.01 127.389C1041.97 126.303 1042.46 124.614 1042.46 122.321C1042.46 117.977 1040.95 114.357 1037.93 111.461C1034.91 108.444 1030.45 105.066 1024.54 101.325C1020.43 98.6703 1017.24 96.438 1014.94 94.628C1012.65 92.818 1010.66 90.7063 1008.97 88.293C1007.4 85.8797 1006.62 83.1043 1006.62 79.967C1006.62 76.9503 1007.7 73.994 1009.88 71.098C1012.05 68.202 1015.06 65.849 1018.93 64.039C1022.91 62.229 1027.43 61.324 1032.5 61.324C1038.9 61.324 1044.08 62.3497 1048.07 64.401C1052.05 66.3317 1054.1 68.926 1054.22 72.184C1054.46 74.4767 1053.8 76.2867 1052.23 77.614C1050.78 78.9413 1049.03 79.605 1046.98 79.605C1044.08 79.605 1041.85 79.062 1040.28 77.976C1038.84 76.89 1037.33 75.2007 1035.76 72.908C1034.19 70.736 1032.68 69.107 1031.23 68.021C1029.91 66.935 1027.91 66.392 1025.26 66.392C1023.09 66.392 1021.52 66.935 1020.55 68.021C1019.59 69.107 1019.11 70.4343 1019.11 72.003C1019.11 75.7437 1020.55 79.0017 1023.45 81.777C1026.35 84.4317 1030.63 87.569 1036.3 91.189C1042.58 95.171 1047.28 98.791 1050.42 102.049C1053.56 105.186 1055.13 108.987 1055.13 113.452C1055 116.71 1053.86 120.028 1051.69 123.407C1049.51 126.665 1046.38 129.44 1042.27 131.733C1038.17 133.905 1033.34 134.991 1027.79 134.991Z" fill="white"/>
</svg>
